<svg xmlns="http://www.w3.org/2000/svg" viewBox="0 0 980 1200" role="img" aria-labelledby="title desc">
<title id="title">Movimento funcional e anatomia</title><desc id="desc">Ilustração de corpo em movimento funcional com linhas anatômicas estilizadas.</desc>
<defs><radialGradient id="bg" cx="50%" cy="30%" r="70%"><stop stop-color="#25361d"/><stop offset=".62" stop-color="#071006"/><stop offset="1" stop-color="#020402"/></radialGradient><linearGradient id="lime" x1="0" x2="1"><stop stop-color="#b8f23a"/><stop offset="1" stop-color="#6ca600"/></linearGradient></defs><rect width="980" height="1200" fill="url(#bg)"/><g opacity=".18" stroke="#b8f23a" fill="none"><path d="M95 1020C260 760 346 465 438 84"/><path d="M232 1092C370 812 508 530 824 236"/><path d="M50 638c260-60 520-64 872 0"/><circle cx="490" cy="595" r="350"/></g><g transform="translate(120 118)" stroke-linecap="round" stroke-linejoin="round" fill="none"><circle cx="366" cy="118" r="68" fill="#e8b188" stroke="#e8b188" stroke-width="8"/><path d="M372 194c-42 96-70 202-82 320" stroke="#111" stroke-width="92"/><path d="M358 255c-120 52-205 130-278 244" stroke="#e8b188" stroke-width="42"/><path d="M80 500c-33 54-42 106-32 157" stroke="#e8b188" stroke-width="34"/><path d="M397 274c96 98 180 192 278 292" stroke="#e8b188" stroke-width="42"/><path d="M675 566c54 42 104 58 156 46" stroke="#e8b188" stroke-width="34"/><path d="M302 512c-72 132-116 256-168 404" stroke="#8fa39d" stroke-width="58"/><path d="M136 916c-26 70-56 112-102 146" stroke="#8fa39d" stroke-width="42"/><path d="M344 520c110 96 214 204 308 358" stroke="#8fa39d" stroke-width="58"/><path d="M652 878c45 76 95 124 160 148" stroke="#8fa39d" stroke-width="42"/><path d="M350 256c30 88 46 172 38 254" stroke="url(#lime)" stroke-width="8" opacity=".9"/><path d="M250 420c74 22 140 26 204 10" stroke="url(#lime)" stroke-width="8" opacity=".9"/></g><text x="70" y="1090" fill="#f8faf3" font-family="Arial, sans-serif" font-size="54" font-weight="900">CORPO • TÉCNICA • EVOLUÇÃO</text></svg>
