<svg xmlns="http://www.w3.org/2000/svg" viewBox="0 0 1200 820" role="img" aria-labelledby="title desc">
<title id="title">Treino de pilates ao ar livre</title><desc id="desc">Ilustração inspirada em aula de pilates com movimento de ponte e natureza ao fundo.</desc>
<defs><linearGradient id="g" x1="0" x2="1" y1="0" y2="1"><stop stop-color="#163022"/><stop offset=".58" stop-color="#77836f"/><stop offset="1" stop-color="#f2d5a5"/></linearGradient><filter id="blur"><feGaussianBlur stdDeviation="10"/></filter></defs>
<rect width="1200" height="820" fill="url(#g)"/><g opacity=".42" filter="url(#blur)"><circle cx="160" cy="140" r="110" fill="#96d03a"/><circle cx="1040" cy="80" r="150" fill="#dff8ff"/><circle cx="760" cy="210" r="90" fill="#183d25"/><path d="M0 250c150-95 256-40 366-98 102-55 210-124 338-68 170 75 324-10 496-66v310H0z" fill="#153c25"/></g><path d="M0 610c180-50 344-42 518-34 210 10 430-8 682-86v330H0z" fill="#281b13" opacity=".65"/><path d="M180 622c190 20 460 20 800-34" stroke="#d9bf80" stroke-width="38" stroke-linecap="round" opacity=".9"/><g fill="none" stroke-linecap="round" stroke-linejoin="round"><path d="M360 462c96-46 230-62 348-40" stroke="#161616" stroke-width="48"/><path d="M695 420c92 38 145 88 205 144" stroke="#101010" stroke-width="42"/><path d="M512 454c-72 44-130 96-188 136" stroke="#e8b188" stroke-width="34"/><path d="M330 590c-40 24-82 32-128 22" stroke="#e8b188" stroke-width="28"/><path d="M790 498c58 8 124 13 192 12" stroke="#91a7a0" stroke-width="50"/><path d="M977 510c55 0 95-30 136-62" stroke="#91a7a0" stroke-width="36"/><path d="M725 446c-55 48-84 92-92 150" stroke="#91a7a0" stroke-width="42"/><path d="M630 596c-4 42 10 72 46 93" stroke="#91a7a0" stroke-width="34"/><path d="M465 420c-54-72-118-120-186-142" stroke="#e8b188" stroke-width="31"/><path d="M279 278c-42-14-80-32-113-58" stroke="#e8b188" stroke-width="24"/></g><circle cx="398" cy="458" r="46" fill="#e8b188"/><path d="M352 445c36-62 104-70 145-26" fill="#191919" opacity=".82"/><text x="72" y="105" fill="#f6fff0" font-family="Arial, sans-serif" font-size="48" font-weight="800">PILATES • CONSCIÊNCIA CORPORAL</text></svg>
